<mxfile host="app.diagrams.net" agent="Mozilla/5.0 (Windows NT 10.0; Win64; x64) AppleWebKit/537.36 (KHTML, like Gecko) Chrome/131.0.0.0 Safari/537.36" version="24.9.0">
  <diagram name="Page-1" id="c0LUzQ4TsBwDuTO7IOma">
    <mxGraphModel dx="3000" dy="1614" grid="1" gridSize="10" guides="1" tooltips="1" connect="1" arrows="1" fold="1" page="1" pageScale="1" pageWidth="850" pageHeight="1100" math="0" shadow="0">
      <root>
        <mxCell id="0" />
        <mxCell id="1" parent="0" />
        <mxCell id="m1pPj7lsccXKmOrxZrO4-5" value="" style="group" vertex="1" connectable="0" parent="1">
          <mxGeometry x="360" y="260" width="180" height="150" as="geometry" />
        </mxCell>
        <mxCell id="m1pPj7lsccXKmOrxZrO4-1" value="" style="rounded=0;whiteSpace=wrap;html=1;" vertex="1" parent="m1pPj7lsccXKmOrxZrO4-5">
          <mxGeometry width="170" height="150" as="geometry" />
        </mxCell>
        <mxCell id="m1pPj7lsccXKmOrxZrO4-2" value="" style="endArrow=none;html=1;rounded=0;exitX=0;exitY=0.25;exitDx=0;exitDy=0;entryX=1;entryY=0.25;entryDx=0;entryDy=0;" edge="1" parent="m1pPj7lsccXKmOrxZrO4-5" source="m1pPj7lsccXKmOrxZrO4-1" target="m1pPj7lsccXKmOrxZrO4-1">
          <mxGeometry width="50" height="50" relative="1" as="geometry">
            <mxPoint x="40" y="60" as="sourcePoint" />
            <mxPoint x="90" y="10" as="targetPoint" />
          </mxGeometry>
        </mxCell>
        <mxCell id="m1pPj7lsccXKmOrxZrO4-3" value="&lt;b&gt;&lt;font style=&quot;font-size: 17px;&quot;&gt;AFKO&lt;/font&gt;&lt;/b&gt;" style="text;html=1;align=center;verticalAlign=middle;whiteSpace=wrap;rounded=0;" vertex="1" parent="m1pPj7lsccXKmOrxZrO4-5">
          <mxGeometry x="57" y="4" width="60" height="40" as="geometry" />
        </mxCell>
        <mxCell id="m1pPj7lsccXKmOrxZrO4-4" value="&lt;div&gt;&lt;font style=&quot;font-size: 9px;&quot;&gt;○ SOURCE_SYSTEM_ERP: Source ERP&amp;nbsp;&lt;/font&gt;&lt;/div&gt;&lt;div&gt;&lt;font style=&quot;font-size: 9px;&quot;&gt;○ MANDT: Client&lt;/font&gt;&lt;/div&gt;&lt;div&gt;&lt;font style=&quot;font-size: 9px;&quot;&gt;○ AUFNR: Order Number&lt;/font&gt;&lt;/div&gt;&lt;div&gt;&lt;font style=&quot;font-size: 9px;&quot;&gt;○ GSTRP&lt;/font&gt;&lt;/div&gt;&lt;div&gt;&lt;font style=&quot;font-size: 9px;&quot;&gt;&lt;span style=&quot;background-color: initial;&quot;&gt;○&lt;/span&gt;&lt;span style=&quot;background-color: initial;&quot;&gt;&amp;nbsp;&lt;/span&gt;GLTRS&lt;br&gt;&lt;/font&gt;&lt;/div&gt;&lt;div&gt;&lt;font style=&quot;font-size: 9px;&quot;&gt;&lt;span style=&quot;background-color: initial;&quot;&gt;○&lt;/span&gt;&lt;span style=&quot;background-color: initial;&quot;&gt;&amp;nbsp;&lt;/span&gt;GSTRI&lt;/font&gt;&lt;/div&gt;" style="text;html=1;align=left;verticalAlign=middle;whiteSpace=wrap;rounded=0;" vertex="1" parent="m1pPj7lsccXKmOrxZrO4-5">
          <mxGeometry y="44" width="180" height="96" as="geometry" />
        </mxCell>
        <mxCell id="m1pPj7lsccXKmOrxZrO4-6" value="" style="group" vertex="1" connectable="0" parent="1">
          <mxGeometry x="360" y="500" width="180" height="130" as="geometry" />
        </mxCell>
        <mxCell id="m1pPj7lsccXKmOrxZrO4-7" value="" style="rounded=0;whiteSpace=wrap;html=1;" vertex="1" parent="m1pPj7lsccXKmOrxZrO4-6">
          <mxGeometry width="170" height="130" as="geometry" />
        </mxCell>
        <mxCell id="m1pPj7lsccXKmOrxZrO4-8" value="" style="endArrow=none;html=1;rounded=0;exitX=0;exitY=0.25;exitDx=0;exitDy=0;entryX=1;entryY=0.25;entryDx=0;entryDy=0;" edge="1" parent="m1pPj7lsccXKmOrxZrO4-6" source="m1pPj7lsccXKmOrxZrO4-7" target="m1pPj7lsccXKmOrxZrO4-7">
          <mxGeometry width="50" height="50" relative="1" as="geometry">
            <mxPoint x="40" y="52" as="sourcePoint" />
            <mxPoint x="90" y="8.666666666666668" as="targetPoint" />
          </mxGeometry>
        </mxCell>
        <mxCell id="m1pPj7lsccXKmOrxZrO4-9" value="&lt;b&gt;&lt;font style=&quot;font-size: 17px;&quot;&gt;AFPO&lt;/font&gt;&lt;/b&gt;" style="text;html=1;align=center;verticalAlign=middle;whiteSpace=wrap;rounded=0;" vertex="1" parent="m1pPj7lsccXKmOrxZrO4-6">
          <mxGeometry x="57" y="3.466666666666667" width="60" height="34.66666666666667" as="geometry" />
        </mxCell>
        <mxCell id="m1pPj7lsccXKmOrxZrO4-10" value="&lt;div&gt;&lt;font size=&quot;1&quot;&gt;○ AUFNR: Order Number&lt;/font&gt;&lt;/div&gt;&lt;div&gt;&lt;font size=&quot;1&quot;&gt;○ POSNR: Order Item Number&lt;/font&gt;&lt;/div&gt;&lt;div&gt;&lt;font size=&quot;1&quot;&gt;○ DWERK: Plant&amp;nbsp;&lt;/font&gt;&lt;/div&gt;&lt;div&gt;&lt;span style=&quot;font-size: x-small; background-color: initial;&quot;&gt;○&lt;/span&gt;&lt;span style=&quot;font-size: x-small; background-color: initial;&quot;&gt;&amp;nbsp;&lt;/span&gt;&lt;span style=&quot;font-size: x-small; background-color: initial;&quot;&gt;MATNR: Material Number&lt;/span&gt;&lt;/div&gt;&lt;div&gt;&lt;span style=&quot;background-color: initial; font-size: x-small;&quot;&gt;○&lt;/span&gt;&lt;span style=&quot;background-color: initial; font-size: x-small;&quot;&gt;&amp;nbsp;LTRMI&lt;/span&gt;&lt;span style=&quot;font-size: x-small; background-color: initial;&quot;&gt;&lt;/span&gt;&lt;/div&gt;" style="text;html=1;align=left;verticalAlign=middle;whiteSpace=wrap;rounded=0;" vertex="1" parent="m1pPj7lsccXKmOrxZrO4-6">
          <mxGeometry y="38.13333333333333" width="180" height="83.2" as="geometry" />
        </mxCell>
        <mxCell id="m1pPj7lsccXKmOrxZrO4-11" value="" style="group" vertex="1" connectable="0" parent="1">
          <mxGeometry x="820" y="680" width="230" height="160" as="geometry" />
        </mxCell>
        <mxCell id="m1pPj7lsccXKmOrxZrO4-12" value="" style="rounded=0;whiteSpace=wrap;html=1;" vertex="1" parent="m1pPj7lsccXKmOrxZrO4-11">
          <mxGeometry width="170" height="160" as="geometry" />
        </mxCell>
        <mxCell id="m1pPj7lsccXKmOrxZrO4-13" value="" style="endArrow=none;html=1;rounded=0;exitX=0;exitY=0.25;exitDx=0;exitDy=0;entryX=1;entryY=0.25;entryDx=0;entryDy=0;" edge="1" parent="m1pPj7lsccXKmOrxZrO4-11" source="m1pPj7lsccXKmOrxZrO4-12" target="m1pPj7lsccXKmOrxZrO4-12">
          <mxGeometry width="50" height="50" relative="1" as="geometry">
            <mxPoint x="40" y="64" as="sourcePoint" />
            <mxPoint x="90" y="10.666666666666668" as="targetPoint" />
          </mxGeometry>
        </mxCell>
        <mxCell id="m1pPj7lsccXKmOrxZrO4-14" value="&lt;b&gt;&lt;font style=&quot;font-size: 17px;&quot;&gt;AUFK&lt;/font&gt;&lt;/b&gt;" style="text;html=1;align=center;verticalAlign=middle;whiteSpace=wrap;rounded=0;" vertex="1" parent="m1pPj7lsccXKmOrxZrO4-11">
          <mxGeometry x="57" y="4.266666666666667" width="60" height="42.66666666666667" as="geometry" />
        </mxCell>
        <mxCell id="m1pPj7lsccXKmOrxZrO4-15" value="&lt;div&gt;&lt;font style=&quot;font-size: 8px;&quot;&gt;○ AUFNR: Order Number&lt;/font&gt;&lt;/div&gt;&lt;div&gt;&lt;font style=&quot;font-size: 8px;&quot;&gt;○ OBJNR: Object Number&lt;/font&gt;&lt;/div&gt;&lt;div&gt;&lt;font style=&quot;font-size: 8px;&quot;&gt;○ ERDAT: Creation Date&lt;/font&gt;&lt;/div&gt;&lt;div&gt;&lt;font style=&quot;font-size: 8px;&quot;&gt;○ ERNAM: Created By&lt;/font&gt;&lt;/div&gt;&lt;div&gt;&lt;font style=&quot;font-size: 8px;&quot;&gt;○ AUART: Order Type&lt;/font&gt;&lt;/div&gt;&lt;div&gt;&lt;font style=&quot;font-size: 8px;&quot;&gt;○ ZZGLTRP_ORIG: Original Basic Finish Date&lt;/font&gt;&lt;/div&gt;&lt;div&gt;&lt;font style=&quot;font-size: 8px;&quot;&gt;○ ZZPRO_TEXT: Project Text&lt;/font&gt;&lt;/div&gt;" style="text;html=1;align=left;verticalAlign=middle;whiteSpace=wrap;rounded=0;" vertex="1" parent="m1pPj7lsccXKmOrxZrO4-11">
          <mxGeometry y="46.93" width="170" height="102.4" as="geometry" />
        </mxCell>
        <mxCell id="m1pPj7lsccXKmOrxZrO4-16" value="" style="group" vertex="1" connectable="0" parent="1">
          <mxGeometry x="1279" y="940" width="180" height="130" as="geometry" />
        </mxCell>
        <mxCell id="m1pPj7lsccXKmOrxZrO4-17" value="" style="rounded=0;whiteSpace=wrap;html=1;" vertex="1" parent="m1pPj7lsccXKmOrxZrO4-16">
          <mxGeometry width="170" height="130" as="geometry" />
        </mxCell>
        <mxCell id="m1pPj7lsccXKmOrxZrO4-18" value="" style="endArrow=none;html=1;rounded=0;exitX=0;exitY=0.25;exitDx=0;exitDy=0;entryX=1;entryY=0.25;entryDx=0;entryDy=0;" edge="1" parent="m1pPj7lsccXKmOrxZrO4-16" source="m1pPj7lsccXKmOrxZrO4-17" target="m1pPj7lsccXKmOrxZrO4-17">
          <mxGeometry width="50" height="50" relative="1" as="geometry">
            <mxPoint x="40" y="52" as="sourcePoint" />
            <mxPoint x="90" y="8.666666666666668" as="targetPoint" />
          </mxGeometry>
        </mxCell>
        <mxCell id="m1pPj7lsccXKmOrxZrO4-19" value="&lt;b&gt;&lt;font style=&quot;font-size: 17px;&quot;&gt;MARA&lt;/font&gt;&lt;/b&gt;" style="text;html=1;align=center;verticalAlign=middle;whiteSpace=wrap;rounded=0;" vertex="1" parent="m1pPj7lsccXKmOrxZrO4-16">
          <mxGeometry x="57" y="3.466666666666667" width="60" height="34.66666666666667" as="geometry" />
        </mxCell>
        <mxCell id="m1pPj7lsccXKmOrxZrO4-20" value="&lt;div&gt;&lt;font size=&quot;1&quot;&gt;○ MATNR: Material Number&lt;/font&gt;&lt;/div&gt;&lt;div&gt;&lt;font size=&quot;1&quot;&gt;○ Global Material Number&lt;/font&gt;&lt;/div&gt;&lt;div&gt;&lt;font size=&quot;1&quot;&gt;○ NTGEW: Net Weight&lt;/font&gt;&lt;/div&gt;&lt;div&gt;&lt;font size=&quot;1&quot;&gt;○ MTART: Material Type&lt;/font&gt;&lt;/div&gt;" style="text;html=1;align=left;verticalAlign=middle;whiteSpace=wrap;rounded=0;" vertex="1" parent="m1pPj7lsccXKmOrxZrO4-16">
          <mxGeometry y="38.13" width="160" height="83.2" as="geometry" />
        </mxCell>
        <mxCell id="m1pPj7lsccXKmOrxZrO4-21" value="" style="group" vertex="1" connectable="0" parent="1">
          <mxGeometry x="605" y="408" width="120" height="110" as="geometry" />
        </mxCell>
        <mxCell id="m1pPj7lsccXKmOrxZrO4-22" value="" style="rhombus;whiteSpace=wrap;html=1;fillColor=#fff2cc;strokeColor=#d6b656;" vertex="1" parent="m1pPj7lsccXKmOrxZrO4-21">
          <mxGeometry y="10" width="120" height="100" as="geometry" />
        </mxCell>
        <mxCell id="m1pPj7lsccXKmOrxZrO4-23" value="AUFNR: Order Number" style="text;html=1;align=center;verticalAlign=middle;whiteSpace=wrap;rounded=0;" vertex="1" parent="m1pPj7lsccXKmOrxZrO4-21">
          <mxGeometry x="5" y="50" width="110" height="30" as="geometry" />
        </mxCell>
        <mxCell id="m1pPj7lsccXKmOrxZrO4-24" value="" style="endArrow=classic;html=1;rounded=0;exitX=1;exitY=0.5;exitDx=0;exitDy=0;entryX=0.5;entryY=0;entryDx=0;entryDy=0;" edge="1" parent="1">
          <mxGeometry width="50" height="50" relative="1" as="geometry">
            <mxPoint x="530" y="374" as="sourcePoint" />
            <mxPoint x="665" y="418" as="targetPoint" />
            <Array as="points">
              <mxPoint x="665" y="374" />
            </Array>
          </mxGeometry>
        </mxCell>
        <mxCell id="m1pPj7lsccXKmOrxZrO4-25" value="" style="endArrow=classic;html=1;rounded=0;exitX=1;exitY=0.5;exitDx=0;exitDy=0;" edge="1" parent="1">
          <mxGeometry width="50" height="50" relative="1" as="geometry">
            <mxPoint x="530" y="568" as="sourcePoint" />
            <mxPoint x="665" y="518" as="targetPoint" />
            <Array as="points">
              <mxPoint x="665" y="568" />
            </Array>
          </mxGeometry>
        </mxCell>
        <mxCell id="m1pPj7lsccXKmOrxZrO4-27" value="" style="group" vertex="1" connectable="0" parent="1">
          <mxGeometry x="820" y="388" width="180" height="220" as="geometry" />
        </mxCell>
        <mxCell id="m1pPj7lsccXKmOrxZrO4-28" value="" style="rounded=0;whiteSpace=wrap;html=1;" vertex="1" parent="m1pPj7lsccXKmOrxZrO4-27">
          <mxGeometry width="170" height="208.42105263157896" as="geometry" />
        </mxCell>
        <mxCell id="m1pPj7lsccXKmOrxZrO4-29" value="" style="endArrow=none;html=1;rounded=0;exitX=0;exitY=0.25;exitDx=0;exitDy=0;entryX=1;entryY=0.25;entryDx=0;entryDy=0;" edge="1" parent="m1pPj7lsccXKmOrxZrO4-27" source="m1pPj7lsccXKmOrxZrO4-28" target="m1pPj7lsccXKmOrxZrO4-28">
          <mxGeometry width="50" height="50" relative="1" as="geometry">
            <mxPoint x="40" y="69.47368421052632" as="sourcePoint" />
            <mxPoint x="90" y="11.578947368421053" as="targetPoint" />
          </mxGeometry>
        </mxCell>
        <mxCell id="m1pPj7lsccXKmOrxZrO4-30" value="&lt;b&gt;&lt;font style=&quot;font-size: 17px;&quot;&gt;Joined Dataframe&lt;/font&gt;&lt;/b&gt;" style="text;html=1;align=center;verticalAlign=middle;whiteSpace=wrap;rounded=0;" vertex="1" parent="m1pPj7lsccXKmOrxZrO4-27">
          <mxGeometry x="57" y="4.631578947368421" width="60" height="46.31578947368421" as="geometry" />
        </mxCell>
        <mxCell id="m1pPj7lsccXKmOrxZrO4-31" value="&lt;div&gt;&lt;font style=&quot;font-size: 9px;&quot;&gt;○ SOURCE_SYSTEM_ERP: Source ERP&amp;nbsp;&lt;/font&gt;&lt;/div&gt;&lt;div&gt;&lt;font style=&quot;font-size: 9px;&quot;&gt;○ MANDT: Client&lt;/font&gt;&lt;/div&gt;&lt;div&gt;&lt;font style=&quot;font-size: 9px;&quot;&gt;○ AUFNR: Order Number&lt;/font&gt;&lt;/div&gt;&lt;div&gt;&lt;font style=&quot;font-size: 9px;&quot;&gt;○ GSTRP&lt;/font&gt;&lt;/div&gt;&lt;div&gt;&lt;font style=&quot;font-size: 9px;&quot;&gt;&lt;span style=&quot;background-color: initial;&quot;&gt;○&lt;/span&gt;&lt;span style=&quot;background-color: initial;&quot;&gt;&amp;nbsp;&lt;/span&gt;GSTRI&lt;/font&gt;&lt;/div&gt;&lt;div&gt;&lt;font style=&quot;font-size: 9px;&quot;&gt;&lt;span style=&quot;background-color: initial;&quot;&gt;○&lt;/span&gt;&lt;span style=&quot;background-color: initial;&quot;&gt;&amp;nbsp;&lt;/span&gt;GLTRS&lt;br&gt;&lt;/font&gt;&lt;/div&gt;&lt;div&gt;&lt;font style=&quot;font-size: 9px;&quot;&gt;&lt;div style=&quot;font-size: 12px;&quot;&gt;&lt;font size=&quot;1&quot;&gt;○ POSNR: Order Item Number&lt;/font&gt;&lt;/div&gt;&lt;div style=&quot;font-size: 12px;&quot;&gt;&lt;font size=&quot;1&quot;&gt;○ DWERK: Plant&amp;nbsp;&lt;/font&gt;&lt;/div&gt;&lt;div style=&quot;font-size: 12px;&quot;&gt;&lt;span style=&quot;font-size: x-small; background-color: initial;&quot;&gt;○&lt;/span&gt;&lt;span style=&quot;font-size: x-small; background-color: initial;&quot;&gt;&amp;nbsp;&lt;/span&gt;&lt;span style=&quot;font-size: x-small; background-color: initial;&quot;&gt;MATNR: Material Number&lt;/span&gt;&lt;/div&gt;&lt;div style=&quot;font-size: 12px;&quot;&gt;&lt;span style=&quot;background-color: initial; font-size: x-small;&quot;&gt;○&lt;/span&gt;&lt;span style=&quot;background-color: initial; font-size: x-small;&quot;&gt;&amp;nbsp;LTRMI&lt;/span&gt;&lt;span style=&quot;font-size: x-small; background-color: initial;&quot;&gt;&lt;/span&gt;&lt;/div&gt;&lt;/font&gt;&lt;/div&gt;" style="text;html=1;align=left;verticalAlign=middle;whiteSpace=wrap;rounded=0;" vertex="1" parent="m1pPj7lsccXKmOrxZrO4-27">
          <mxGeometry y="50.94736842105263" width="180" height="169.0526315789474" as="geometry" />
        </mxCell>
        <mxCell id="m1pPj7lsccXKmOrxZrO4-32" value="" style="endArrow=classic;html=1;rounded=0;entryX=-0.004;entryY=0.175;entryDx=0;entryDy=0;exitX=1;exitY=0.5;exitDx=0;exitDy=0;entryPerimeter=0;" edge="1" parent="1" source="m1pPj7lsccXKmOrxZrO4-22" target="m1pPj7lsccXKmOrxZrO4-31">
          <mxGeometry width="50" height="50" relative="1" as="geometry">
            <mxPoint x="740" y="480" as="sourcePoint" />
            <mxPoint x="710" y="440" as="targetPoint" />
          </mxGeometry>
        </mxCell>
        <mxCell id="m1pPj7lsccXKmOrxZrO4-40" value="" style="group" vertex="1" connectable="0" parent="1">
          <mxGeometry x="1065" y="564" width="120" height="110" as="geometry" />
        </mxCell>
        <mxCell id="m1pPj7lsccXKmOrxZrO4-41" value="" style="rhombus;whiteSpace=wrap;html=1;fillColor=#fff2cc;strokeColor=#d6b656;" vertex="1" parent="m1pPj7lsccXKmOrxZrO4-40">
          <mxGeometry y="10" width="120" height="100" as="geometry" />
        </mxCell>
        <mxCell id="m1pPj7lsccXKmOrxZrO4-42" value="AUFNR: Order Number" style="text;html=1;align=center;verticalAlign=middle;whiteSpace=wrap;rounded=0;" vertex="1" parent="m1pPj7lsccXKmOrxZrO4-40">
          <mxGeometry x="5" y="50" width="110" height="30" as="geometry" />
        </mxCell>
        <mxCell id="m1pPj7lsccXKmOrxZrO4-43" value="" style="endArrow=classic;html=1;rounded=0;exitX=1;exitY=0.5;exitDx=0;exitDy=0;entryX=0.5;entryY=0;entryDx=0;entryDy=0;" edge="1" parent="1">
          <mxGeometry width="50" height="50" relative="1" as="geometry">
            <mxPoint x="990" y="530" as="sourcePoint" />
            <mxPoint x="1125" y="574" as="targetPoint" />
            <Array as="points">
              <mxPoint x="1125" y="530" />
            </Array>
          </mxGeometry>
        </mxCell>
        <mxCell id="m1pPj7lsccXKmOrxZrO4-44" value="" style="endArrow=classic;html=1;rounded=0;exitX=1.006;exitY=0.325;exitDx=0;exitDy=0;exitPerimeter=0;" edge="1" parent="1" source="m1pPj7lsccXKmOrxZrO4-15">
          <mxGeometry width="50" height="50" relative="1" as="geometry">
            <mxPoint x="990" y="724" as="sourcePoint" />
            <mxPoint x="1125" y="674" as="targetPoint" />
            <Array as="points">
              <mxPoint x="1060" y="760" />
              <mxPoint x="1125" y="760" />
            </Array>
          </mxGeometry>
        </mxCell>
        <mxCell id="m1pPj7lsccXKmOrxZrO4-45" value="" style="endArrow=classic;html=1;rounded=0;entryX=-0.004;entryY=0.175;entryDx=0;entryDy=0;exitX=1;exitY=0.5;exitDx=0;exitDy=0;entryPerimeter=0;" edge="1" parent="1" source="m1pPj7lsccXKmOrxZrO4-41">
          <mxGeometry width="50" height="50" relative="1" as="geometry">
            <mxPoint x="1200" y="636" as="sourcePoint" />
            <mxPoint x="1279" y="624" as="targetPoint" />
          </mxGeometry>
        </mxCell>
        <mxCell id="m1pPj7lsccXKmOrxZrO4-47" value="" style="group" vertex="1" connectable="0" parent="1">
          <mxGeometry x="1279" y="490" width="180" height="330" as="geometry" />
        </mxCell>
        <mxCell id="m1pPj7lsccXKmOrxZrO4-48" value="" style="rounded=0;whiteSpace=wrap;html=1;" vertex="1" parent="m1pPj7lsccXKmOrxZrO4-47">
          <mxGeometry width="170" height="319" as="geometry" />
        </mxCell>
        <mxCell id="m1pPj7lsccXKmOrxZrO4-49" value="" style="endArrow=none;html=1;rounded=0;exitX=0;exitY=0.25;exitDx=0;exitDy=0;entryX=1;entryY=0.25;entryDx=0;entryDy=0;" edge="1" parent="m1pPj7lsccXKmOrxZrO4-47" source="m1pPj7lsccXKmOrxZrO4-48" target="m1pPj7lsccXKmOrxZrO4-48">
          <mxGeometry width="50" height="50" relative="1" as="geometry">
            <mxPoint x="40" y="106.33333333333333" as="sourcePoint" />
            <mxPoint x="90" y="17.72222222222222" as="targetPoint" />
          </mxGeometry>
        </mxCell>
        <mxCell id="m1pPj7lsccXKmOrxZrO4-50" value="&lt;b&gt;&lt;font style=&quot;font-size: 17px;&quot;&gt;Joined Dataframe&lt;/font&gt;&lt;/b&gt;" style="text;html=1;align=center;verticalAlign=middle;whiteSpace=wrap;rounded=0;" vertex="1" parent="m1pPj7lsccXKmOrxZrO4-47">
          <mxGeometry x="57" y="7.088888888888889" width="60" height="70.88888888888889" as="geometry" />
        </mxCell>
        <mxCell id="m1pPj7lsccXKmOrxZrO4-51" value="&lt;div&gt;&lt;font style=&quot;font-size: 9px;&quot;&gt;○ SOURCE_SYSTEM_ERP: Source ERP&amp;nbsp;&lt;/font&gt;&lt;/div&gt;&lt;div&gt;&lt;font style=&quot;font-size: 9px;&quot;&gt;○ MANDT: Client&lt;/font&gt;&lt;/div&gt;&lt;div&gt;&lt;font style=&quot;font-size: 9px;&quot;&gt;○ AUFNR: Order Number&lt;/font&gt;&lt;/div&gt;&lt;div&gt;&lt;font style=&quot;font-size: 9px;&quot;&gt;○ GSTRP&lt;/font&gt;&lt;/div&gt;&lt;div&gt;&lt;font style=&quot;font-size: 9px;&quot;&gt;&lt;span style=&quot;background-color: initial;&quot;&gt;○&lt;/span&gt;&lt;span style=&quot;background-color: initial;&quot;&gt;&amp;nbsp;&lt;/span&gt;GLTRS&lt;br&gt;&lt;/font&gt;&lt;/div&gt;&lt;div&gt;&lt;font style=&quot;font-size: 9px;&quot;&gt;&lt;span style=&quot;background-color: initial;&quot;&gt;○&lt;/span&gt;&lt;span style=&quot;background-color: initial;&quot;&gt;&amp;nbsp;&lt;/span&gt;GSTRI&lt;/font&gt;&lt;/div&gt;&lt;div&gt;&lt;font style=&quot;font-size: 9px;&quot;&gt;&lt;div style=&quot;font-size: 12px;&quot;&gt;&lt;font size=&quot;1&quot;&gt;○ POSNR: Order Item Number&lt;/font&gt;&lt;/div&gt;&lt;div style=&quot;font-size: 12px;&quot;&gt;&lt;font size=&quot;1&quot;&gt;○ DWERK: Plant&amp;nbsp;&lt;/font&gt;&lt;/div&gt;&lt;div style=&quot;font-size: 12px;&quot;&gt;&lt;span style=&quot;font-size: x-small; background-color: initial;&quot;&gt;○&lt;/span&gt;&lt;span style=&quot;font-size: x-small; background-color: initial;&quot;&gt;&amp;nbsp;&lt;/span&gt;&lt;span style=&quot;font-size: x-small; background-color: initial;&quot;&gt;MATNR: Material Number&lt;/span&gt;&lt;/div&gt;&lt;div style=&quot;font-size: 12px;&quot;&gt;&lt;div&gt;&lt;font style=&quot;font-size: 8px;&quot;&gt;○ OBJNR: Object Number&lt;/font&gt;&lt;/div&gt;&lt;div&gt;&lt;font style=&quot;font-size: 8px;&quot;&gt;○ ERDAT: Creation Date&lt;/font&gt;&lt;/div&gt;&lt;div&gt;&lt;font style=&quot;font-size: 8px;&quot;&gt;○ ERNAM: Created By&lt;/font&gt;&lt;/div&gt;&lt;div&gt;&lt;font style=&quot;font-size: 8px;&quot;&gt;○ AUART: Order Type&lt;/font&gt;&lt;/div&gt;&lt;div&gt;&lt;font style=&quot;font-size: 8px;&quot;&gt;○ ZZGLTRP_ORIG: Original Basic Finish Date&lt;/font&gt;&lt;/div&gt;&lt;div&gt;&lt;font style=&quot;font-size: 8px;&quot;&gt;○ ZZPRO_TEXT: Project Text&lt;/font&gt;&lt;/div&gt;&lt;div&gt;&lt;font style=&quot;font-size: 8px;&quot;&gt;&lt;span style=&quot;background-color: initial; font-size: x-small;&quot;&gt;○&lt;/span&gt;&lt;span style=&quot;background-color: initial; font-size: x-small;&quot;&gt;&amp;nbsp;LTRMI&lt;/span&gt;&lt;/font&gt;&lt;/div&gt;&lt;/div&gt;&lt;/font&gt;&lt;/div&gt;" style="text;html=1;align=left;verticalAlign=middle;whiteSpace=wrap;rounded=0;" vertex="1" parent="m1pPj7lsccXKmOrxZrO4-47">
          <mxGeometry y="77.979" width="180" height="252.02100000000002" as="geometry" />
        </mxCell>
        <mxCell id="m1pPj7lsccXKmOrxZrO4-52" value="" style="group" vertex="1" connectable="0" parent="1">
          <mxGeometry x="1525" y="814" width="120" height="110" as="geometry" />
        </mxCell>
        <mxCell id="m1pPj7lsccXKmOrxZrO4-53" value="" style="rhombus;whiteSpace=wrap;html=1;fillColor=#fff2cc;strokeColor=#d6b656;" vertex="1" parent="m1pPj7lsccXKmOrxZrO4-52">
          <mxGeometry y="10" width="120" height="100" as="geometry" />
        </mxCell>
        <mxCell id="m1pPj7lsccXKmOrxZrO4-54" value="MATNR: Material Number" style="text;html=1;align=center;verticalAlign=middle;whiteSpace=wrap;rounded=0;" vertex="1" parent="m1pPj7lsccXKmOrxZrO4-52">
          <mxGeometry x="5" y="50" width="110" height="30" as="geometry" />
        </mxCell>
        <mxCell id="m1pPj7lsccXKmOrxZrO4-55" value="" style="endArrow=classic;html=1;rounded=0;entryX=0.5;entryY=0;entryDx=0;entryDy=0;" edge="1" parent="1">
          <mxGeometry width="50" height="50" relative="1" as="geometry">
            <mxPoint x="1450" y="680" as="sourcePoint" />
            <mxPoint x="1585" y="824" as="targetPoint" />
            <Array as="points">
              <mxPoint x="1510" y="680" />
              <mxPoint x="1585" y="680" />
            </Array>
          </mxGeometry>
        </mxCell>
        <mxCell id="m1pPj7lsccXKmOrxZrO4-56" value="" style="endArrow=classic;html=1;rounded=0;exitX=1.001;exitY=0.692;exitDx=0;exitDy=0;exitPerimeter=0;" edge="1" parent="1" source="m1pPj7lsccXKmOrxZrO4-17">
          <mxGeometry width="50" height="50" relative="1" as="geometry">
            <mxPoint x="1450" y="1030" as="sourcePoint" />
            <mxPoint x="1585" y="924" as="targetPoint" />
            <Array as="points">
              <mxPoint x="1520" y="1030" />
              <mxPoint x="1585" y="1030" />
            </Array>
          </mxGeometry>
        </mxCell>
        <mxCell id="m1pPj7lsccXKmOrxZrO4-57" value="" style="endArrow=classic;html=1;rounded=0;entryX=0;entryY=0.175;entryDx=0;entryDy=0;exitX=1;exitY=0.5;exitDx=0;exitDy=0;entryPerimeter=0;" edge="1" parent="1" source="m1pPj7lsccXKmOrxZrO4-53" target="m1pPj7lsccXKmOrxZrO4-62">
          <mxGeometry width="50" height="50" relative="1" as="geometry">
            <mxPoint x="1660" y="886" as="sourcePoint" />
            <mxPoint x="1739" y="874" as="targetPoint" />
          </mxGeometry>
        </mxCell>
        <mxCell id="m1pPj7lsccXKmOrxZrO4-58" value="" style="group" vertex="1" connectable="0" parent="1">
          <mxGeometry x="1740" y="740" width="230" height="320" as="geometry" />
        </mxCell>
        <mxCell id="m1pPj7lsccXKmOrxZrO4-59" value="" style="rounded=0;whiteSpace=wrap;html=1;" vertex="1" parent="m1pPj7lsccXKmOrxZrO4-58">
          <mxGeometry y="-20" width="217.22" height="340" as="geometry" />
        </mxCell>
        <mxCell id="m1pPj7lsccXKmOrxZrO4-60" value="" style="endArrow=none;html=1;rounded=0;exitX=0;exitY=0.25;exitDx=0;exitDy=0;entryX=1;entryY=0.25;entryDx=0;entryDy=0;" edge="1" parent="m1pPj7lsccXKmOrxZrO4-58" source="m1pPj7lsccXKmOrxZrO4-59" target="m1pPj7lsccXKmOrxZrO4-59">
          <mxGeometry width="50" height="50" relative="1" as="geometry">
            <mxPoint x="51.111111111111114" y="106.66666666666666" as="sourcePoint" />
            <mxPoint x="115" y="17.777777777777782" as="targetPoint" />
          </mxGeometry>
        </mxCell>
        <mxCell id="m1pPj7lsccXKmOrxZrO4-61" value="&lt;b&gt;&lt;font style=&quot;font-size: 17px;&quot;&gt;Joined Dataframe&lt;/font&gt;&lt;/b&gt;" style="text;html=1;align=center;verticalAlign=middle;whiteSpace=wrap;rounded=0;" vertex="1" parent="m1pPj7lsccXKmOrxZrO4-58">
          <mxGeometry x="72.83333333333333" y="7.111111111111111" width="76.66666666666667" height="71.11111111111113" as="geometry" />
        </mxCell>
        <mxCell id="m1pPj7lsccXKmOrxZrO4-62" value="&lt;div&gt;&lt;font style=&quot;font-size: 10px;&quot;&gt;○ SOURCE_SYSTEM_ERP: Source ERP&amp;nbsp;&lt;/font&gt;&lt;/div&gt;&lt;div&gt;&lt;font style=&quot;font-size: 10px;&quot;&gt;○ MANDT: Client&lt;/font&gt;&lt;/div&gt;&lt;div&gt;&lt;font style=&quot;font-size: 10px;&quot;&gt;○ AUFNR: Order Number&lt;/font&gt;&lt;/div&gt;&lt;div&gt;&lt;font style=&quot;font-size: 10px;&quot;&gt;○ GSTRP&lt;/font&gt;&lt;/div&gt;&lt;div&gt;&lt;font style=&quot;font-size: 10px;&quot;&gt;&lt;span style=&quot;background-color: initial;&quot;&gt;○&lt;/span&gt;&lt;span style=&quot;background-color: initial;&quot;&gt;&amp;nbsp;&lt;/span&gt;GLTRS&lt;br&gt;&lt;/font&gt;&lt;/div&gt;&lt;div&gt;&lt;font style=&quot;&quot;&gt;&lt;span style=&quot;font-size: 9px; background-color: initial;&quot;&gt;○&lt;/span&gt;&lt;span style=&quot;font-size: 9px; background-color: initial;&quot;&gt;&amp;nbsp;&lt;/span&gt;&lt;font style=&quot;font-size: 10px;&quot;&gt;GSTRI&lt;/font&gt;&lt;/font&gt;&lt;/div&gt;&lt;div&gt;&lt;font style=&quot;font-size: 10px;&quot;&gt;&lt;div style=&quot;&quot;&gt;○ POSNR: Order Item Number&lt;/div&gt;&lt;div style=&quot;&quot;&gt;○ DWERK: Plant&amp;nbsp;&lt;/div&gt;&lt;div style=&quot;&quot;&gt;&lt;span style=&quot;background-color: initial;&quot;&gt;○&lt;/span&gt;&lt;span style=&quot;background-color: initial;&quot;&gt;&amp;nbsp;&lt;/span&gt;&lt;span style=&quot;background-color: initial;&quot;&gt;MATNR: Material Number&lt;/span&gt;&lt;/div&gt;&lt;div style=&quot;&quot;&gt;&lt;div style=&quot;&quot;&gt;&lt;font style=&quot;&quot;&gt;○ OBJNR: Object Number&lt;/font&gt;&lt;/div&gt;&lt;div style=&quot;&quot;&gt;&lt;font style=&quot;&quot;&gt;○ ERDAT: Creation Date&lt;/font&gt;&lt;/div&gt;&lt;div style=&quot;&quot;&gt;&lt;font style=&quot;&quot;&gt;&lt;span style=&quot;background-color: initial; font-size: x-small;&quot;&gt;○&lt;/span&gt;&lt;span style=&quot;background-color: initial; font-size: x-small;&quot;&gt;&amp;nbsp;LTRMI&lt;/span&gt;&lt;/font&gt;&lt;/div&gt;&lt;div style=&quot;&quot;&gt;&lt;font style=&quot;&quot;&gt;○ ERNAM: Created By&lt;/font&gt;&lt;/div&gt;&lt;div style=&quot;&quot;&gt;&lt;font style=&quot;&quot;&gt;○ AUART: Order Type&lt;/font&gt;&lt;/div&gt;&lt;div style=&quot;&quot;&gt;&lt;font style=&quot;&quot;&gt;○ ZZGLTRP_ORIG: Original Basic Finish Date&lt;/font&gt;&lt;/div&gt;&lt;div style=&quot;&quot;&gt;&lt;font style=&quot;&quot;&gt;○ ZZPRO_TEXT: Project Text&lt;/font&gt;&lt;/div&gt;&lt;div style=&quot;&quot;&gt;&lt;font style=&quot;&quot;&gt;&lt;div style=&quot;&quot;&gt;○ Global Material Number&lt;/div&gt;&lt;div style=&quot;&quot;&gt;○ NTGEW: Net Weight&lt;/div&gt;&lt;div style=&quot;&quot;&gt;○ MTART: Material Type&lt;/div&gt;&lt;/font&gt;&lt;/div&gt;&lt;/div&gt;&lt;/font&gt;&lt;/div&gt;" style="text;html=1;align=left;verticalAlign=middle;whiteSpace=wrap;rounded=0;" vertex="1" parent="m1pPj7lsccXKmOrxZrO4-58">
          <mxGeometry y="100" width="230" height="195.38" as="geometry" />
        </mxCell>
        <mxCell id="m1pPj7lsccXKmOrxZrO4-63" value="&lt;br&gt;&lt;span style=&quot;font-size: 14px;&quot;&gt;&lt;b&gt;AFKO&lt;/b&gt;&lt;/span&gt;&lt;div&gt;&lt;br/&gt;&lt;/div&gt;" style="shape=cylinder3;whiteSpace=wrap;html=1;boundedLbl=1;backgroundOutline=1;size=15;" vertex="1" parent="1">
          <mxGeometry x="60" y="290" width="80" height="110" as="geometry" />
        </mxCell>
        <mxCell id="m1pPj7lsccXKmOrxZrO4-64" value="&lt;br&gt;&lt;b style=&quot;forced-color-adjust: none; color: rgb(0, 0, 0); font-family: Helvetica; font-size: 14px; font-style: normal; font-variant-ligatures: normal; font-variant-caps: normal; letter-spacing: normal; orphans: 2; text-align: center; text-indent: 0px; text-transform: none; widows: 2; word-spacing: 0px; -webkit-text-stroke-width: 0px; white-space: normal; background-color: rgb(251, 251, 251); text-decoration-thickness: initial; text-decoration-style: initial; text-decoration-color: initial;&quot;&gt;AFPO&lt;/b&gt;&lt;div&gt;&lt;br/&gt;&lt;/div&gt;" style="shape=cylinder3;whiteSpace=wrap;html=1;boundedLbl=1;backgroundOutline=1;size=15;" vertex="1" parent="1">
          <mxGeometry x="60" y="520" width="80" height="110" as="geometry" />
        </mxCell>
        <mxCell id="m1pPj7lsccXKmOrxZrO4-65" value="&#xa;&lt;b style=&quot;forced-color-adjust: none; color: rgb(0, 0, 0); font-family: Helvetica; font-size: 14px; font-style: normal; font-variant-ligatures: normal; font-variant-caps: normal; letter-spacing: normal; orphans: 2; text-align: center; text-indent: 0px; text-transform: none; widows: 2; word-spacing: 0px; -webkit-text-stroke-width: 0px; white-space: normal; background-color: rgb(251, 251, 251); text-decoration-thickness: initial; text-decoration-style: initial; text-decoration-color: initial;&quot;&gt;MARC&lt;/b&gt;&#xa;&#xa;" style="shape=cylinder3;whiteSpace=wrap;html=1;boundedLbl=1;backgroundOutline=1;size=15;" vertex="1" parent="1">
          <mxGeometry x="60" y="720" width="80" height="110" as="geometry" />
        </mxCell>
        <mxCell id="m1pPj7lsccXKmOrxZrO4-66" value="&lt;br&gt;&lt;b style=&quot;forced-color-adjust: none; color: rgb(0, 0, 0); font-family: Helvetica; font-size: 14px; font-style: normal; font-variant-ligatures: normal; font-variant-caps: normal; letter-spacing: normal; orphans: 2; text-align: center; text-indent: 0px; text-transform: none; widows: 2; word-spacing: 0px; -webkit-text-stroke-width: 0px; white-space: normal; background-color: rgb(251, 251, 251); text-decoration-thickness: initial; text-decoration-style: initial; text-decoration-color: initial;&quot;&gt;MARA&lt;/b&gt;&lt;div&gt;&lt;br/&gt;&lt;/div&gt;" style="shape=cylinder3;whiteSpace=wrap;html=1;boundedLbl=1;backgroundOutline=1;size=15;" vertex="1" parent="1">
          <mxGeometry x="60" y="955" width="80" height="105" as="geometry" />
        </mxCell>
        <mxCell id="m1pPj7lsccXKmOrxZrO4-67" value="" style="endArrow=classic;html=1;rounded=0;exitX=1;exitY=0.5;exitDx=0;exitDy=0;exitPerimeter=0;entryX=-0.001;entryY=0.437;entryDx=0;entryDy=0;entryPerimeter=0;" edge="1" parent="1" source="m1pPj7lsccXKmOrxZrO4-63" target="m1pPj7lsccXKmOrxZrO4-4">
          <mxGeometry width="50" height="50" relative="1" as="geometry">
            <mxPoint x="570" y="610" as="sourcePoint" />
            <mxPoint x="620" y="560" as="targetPoint" />
          </mxGeometry>
        </mxCell>
        <mxCell id="m1pPj7lsccXKmOrxZrO4-68" value="" style="endArrow=classic;html=1;rounded=0;entryX=-0.004;entryY=0.433;entryDx=0;entryDy=0;entryPerimeter=0;exitX=1;exitY=0.5;exitDx=0;exitDy=0;exitPerimeter=0;" edge="1" parent="1" source="m1pPj7lsccXKmOrxZrO4-64" target="m1pPj7lsccXKmOrxZrO4-10">
          <mxGeometry width="50" height="50" relative="1" as="geometry">
            <mxPoint x="400" y="540" as="sourcePoint" />
            <mxPoint x="450" y="490" as="targetPoint" />
          </mxGeometry>
        </mxCell>
        <mxCell id="m1pPj7lsccXKmOrxZrO4-69" value="" style="endArrow=classic;html=1;rounded=0;exitX=0.99;exitY=0.479;exitDx=0;exitDy=0;exitPerimeter=0;entryX=-0.006;entryY=0.427;entryDx=0;entryDy=0;entryPerimeter=0;" edge="1" parent="1" source="m1pPj7lsccXKmOrxZrO4-65" target="m1pPj7lsccXKmOrxZrO4-15">
          <mxGeometry width="50" height="50" relative="1" as="geometry">
            <mxPoint x="400" y="740" as="sourcePoint" />
            <mxPoint x="780" y="780" as="targetPoint" />
          </mxGeometry>
        </mxCell>
        <mxCell id="m1pPj7lsccXKmOrxZrO4-71" value="&lt;font style=&quot;font-size: 16px;&quot;&gt;Select the required columns.&lt;/font&gt;" style="text;html=1;align=center;verticalAlign=middle;resizable=0;points=[];autosize=1;strokeColor=none;fillColor=none;" vertex="1" parent="1">
          <mxGeometry x="360" y="730" width="230" height="30" as="geometry" />
        </mxCell>
        <mxCell id="m1pPj7lsccXKmOrxZrO4-72" value="&lt;font style=&quot;font-size: 16px;&quot;&gt;Select the required columns.&lt;/font&gt;" style="text;html=1;align=center;verticalAlign=middle;resizable=0;points=[];autosize=1;strokeColor=none;fillColor=none;" vertex="1" parent="1">
          <mxGeometry x="140" y="534" width="230" height="30" as="geometry" />
        </mxCell>
        <mxCell id="m1pPj7lsccXKmOrxZrO4-73" value="" style="ellipse;shape=cloud;whiteSpace=wrap;html=1;" vertex="1" parent="1">
          <mxGeometry x="600" y="867.25" width="192.5" height="115.5" as="geometry" />
        </mxCell>
        <mxCell id="m1pPj7lsccXKmOrxZrO4-74" value="" style="endArrow=classic;html=1;rounded=0;entryX=0;entryY=0.5;entryDx=0;entryDy=0;" edge="1" parent="1" source="m1pPj7lsccXKmOrxZrO4-76">
          <mxGeometry width="50" height="50" relative="1" as="geometry">
            <mxPoint x="717.1500000000001" y="1017.5500000000002" as="sourcePoint" />
            <mxPoint x="1279" y="1014.88" as="targetPoint" />
          </mxGeometry>
        </mxCell>
        <mxCell id="m1pPj7lsccXKmOrxZrO4-75" value="" style="endArrow=classic;html=1;rounded=0;entryX=0;entryY=0.5;entryDx=0;entryDy=0;" edge="1" parent="1" target="m1pPj7lsccXKmOrxZrO4-76">
          <mxGeometry width="50" height="50" relative="1" as="geometry">
            <mxPoint x="141" y="1015" as="sourcePoint" />
            <mxPoint x="525" y="1014" as="targetPoint" />
          </mxGeometry>
        </mxCell>
        <mxCell id="m1pPj7lsccXKmOrxZrO4-76" value="" style="sketch=0;aspect=fixed;pointerEvents=1;shadow=0;dashed=0;html=1;strokeColor=none;labelPosition=center;verticalLabelPosition=bottom;verticalAlign=top;align=center;fillColor=#00188D;shape=mxgraph.mscae.enterprise.filter" vertex="1" parent="1">
          <mxGeometry x="675" y="992" width="50" height="45" as="geometry" />
        </mxCell>
        <mxCell id="m1pPj7lsccXKmOrxZrO4-77" value="&lt;p&gt;&lt;span style=&quot;text-align: left; text-wrap-mode: wrap; font-size: 8px;&quot;&gt;BISMT is not in &quot;ARCHIVE&quot;, &quot;DUPLICATE&quot;,&lt;/span&gt;&lt;span style=&quot;font-size: 8px; text-align: left; text-wrap-mode: wrap; background-color: initial;&quot;&gt;RENUMBERED&quot; or is null&lt;/span&gt;&lt;/p&gt;" style="text;html=1;align=center;verticalAlign=middle;resizable=0;points=[];autosize=1;strokeColor=none;fillColor=none;" vertex="1" parent="1">
          <mxGeometry x="565" y="890" width="270" height="50" as="geometry" />
        </mxCell>
        <mxCell id="m1pPj7lsccXKmOrxZrO4-78" value="&lt;font style=&quot;font-size: 9px;&quot;&gt;Deletion flag (LVORM) is null or empty.&lt;/font&gt;" style="text;html=1;align=center;verticalAlign=middle;resizable=0;points=[];autosize=1;strokeColor=none;fillColor=none;" vertex="1" parent="1">
          <mxGeometry x="612.5" y="925" width="180" height="30" as="geometry" />
        </mxCell>
      </root>
    </mxGraphModel>
  </diagram>
</mxfile>
